<svg  width="16" height="16" viewBox="0 0 16 16" fill="none" xmlns="http://www.w3.org/2000/svg">
        <path d="M12.6302 11.876C14.8146 10.397 15.8929 8.32887 15.9073 8.30104C15.9678 8.21232 16.0001 8.10739 16 8C15.9999 7.8797 15.9592 7.76297 15.8844 7.66875C15.8288 7.5793 12.7564 2.66667 8 2.66667C6.65059 2.66667 5.43964 3.06677 4.39167 3.6375L0.910417 0.15625ZM8 4.26667C10.0619 4.26667 11.7333 5.93813 11.7333 8C11.7333 8.83838 11.4507 9.60685 10.9833 10.2292L9.83438 9.08021C10.0229 8.76379 10.1333 8.39558 10.1333 8C10.1333 6.82187 9.17813 5.86667 8 5.86667C7.60442 5.86667 7.23621 5.97707 6.91979 6.16563L5.77083 5.01667C6.39315 4.54931 7.16162 4.26667 8 4.26667ZM2.64063 4.84063C1.05555 6.17393 0.146656 7.61975 0.116667 7.66771C0.0412742 7.76207 0.000141568 7.87922 0 8C0.000105292 8.10448 0.0308933 8.20662 0.0885417 8.29375C0.0977116 8.31267 2.67671 13.3333 8 13.3333C8.98667 13.3333 9.87762 13.1592 10.6771 12.8781L9.29688 11.4969C8.89208 11.6473 8.45653 11.7333 8 11.7333C5.93813 11.7333 4.26667 10.0619 4.26667 8C4.26667 7.54347 4.35273 7.10793 4.50313 6.70313L2.64063 4.84063ZM5.87292 8.05938C5.90492 9.18844 6.81052 10.0951 7.93958 10.1271L5.87292 8.05938Z" fill="#6D747A"/>
        <path transform="scale(1, -1) translate(0, -16)" d="M12.6302 11.876C14.8146 10.397 15.8929 8.32887 15.9073 8.30104C15.9678 8.21232 16.0001 8.10739 16 8C15.9999 7.8797 15.9592 7.76297 15.8844 7.66875C15.8288 7.5793 12.7564 2.66667 8 2.66667C6.65059 2.66667 5.43964 3.06677 4.39167 3.6375L0.910417 0.15625ZM8 4.26667C10.0619 4.26667 11.7333 5.93813 11.7333 8C11.7333 8.83838 11.4507 9.60685 10.9833 10.2292L9.83438 9.08021C10.0229 8.76379 10.1333 8.39558 10.1333 8C10.1333 6.82187 9.17813 5.86667 8 5.86667C7.60442 5.86667 7.23621 5.97707 6.91979 6.16563L5.77083 5.01667C6.39315 4.54931 7.16162 4.26667 8 4.26667ZM2.64063 4.84063C1.05555 6.17393 0.146656 7.61975 0.116667 7.66771C0.0412742 7.76207 0.000141568 7.87922 0 8C0.000105292 8.10448 0.0308933 8.20662 0.0885417 8.29375C0.0977116 8.31267 2.67671 13.3333 8 13.3333C8.98667 13.3333 9.87762 13.1592 10.6771 12.8781L9.29688 11.4969C8.89208 11.6473 8.45653 11.7333 8 11.7333C5.93813 11.7333 4.26667 10.0619 4.26667 8C4.26667 7.54347 4.35273 7.10793 4.50313 6.70313L2.64063 4.84063ZM5.87292 8.05938C5.90492 9.18844 6.81052 10.0951 7.93958 10.1271L5.87292 8.05938Z" fill="#6D747A"/>
        <path transform="scale(-1, 1) translate(-16, 0)" d="M12.6302 11.876C14.8146 10.397 15.8929 8.32887 15.9073 8.30104C15.9678 8.21232 16.0001 8.10739 16 8C15.9999 7.8797 15.9592 7.76297 15.8844 7.66875C15.8288 7.5793 12.7564 2.66667 8 2.66667C6.65059 2.66667 5.43964 3.06677 4.39167 3.6375L0.910417 0.15625ZM8 4.26667C10.0619 4.26667 11.7333 5.93813 11.7333 8C11.7333 8.83838 11.4507 9.60685 10.9833 10.2292L9.83438 9.08021C10.0229 8.76379 10.1333 8.39558 10.1333 8C10.1333 6.82187 9.17813 5.86667 8 5.86667C7.60442 5.86667 7.23621 5.97707 6.91979 6.16563L5.77083 5.01667C6.39315 4.54931 7.16162 4.26667 8 4.26667ZM2.64063 4.84063C1.05555 6.17393 0.146656 7.61975 0.116667 7.66771C0.0412742 7.76207 0.000141568 7.87922 0 8C0.000105292 8.10448 0.0308933 8.20662 0.0885417 8.29375C0.0977116 8.31267 2.67671 13.3333 8 13.3333C8.98667 13.3333 9.87762 13.1592 10.6771 12.8781L9.29688 11.4969C8.89208 11.6473 8.45653 11.7333 8 11.7333C5.93813 11.7333 4.26667 10.0619 4.26667 8C4.26667 7.54347 4.35273 7.10793 4.50313 6.70313L2.64063 4.84063ZM5.87292 8.05938C5.90492 9.18844 6.81052 10.0951 7.93958 10.1271L5.87292 8.05938Z" fill="#6D747A"/>
        <path transform="scale(-1, -1) translate(-16, -16)" d="M12.6302 11.876C14.8146 10.397 15.8929 8.32887 15.9073 8.30104C15.9678 8.21232 16.0001 8.10739 16 8C15.9999 7.8797 15.9592 7.76297 15.8844 7.66875C15.8288 7.5793 12.7564 2.66667 8 2.66667C6.65059 2.66667 5.43964 3.06677 4.39167 3.6375L0.910417 0.15625ZM8 4.26667C10.0619 4.26667 11.7333 5.93813 11.7333 8C11.7333 8.83838 11.4507 9.60685 10.9833 10.2292L9.83438 9.08021C10.0229 8.76379 10.1333 8.39558 10.1333 8C10.1333 6.82187 9.17813 5.86667 8 5.86667C7.60442 5.86667 7.23621 5.97707 6.91979 6.16563L5.77083 5.01667C6.39315 4.54931 7.16162 4.26667 8 4.26667ZM2.64063 4.84063C1.05555 6.17393 0.146656 7.61975 0.116667 7.66771C0.0412742 7.76207 0.000141568 7.87922 0 8C0.000105292 8.10448 0.0308933 8.20662 0.0885417 8.29375C0.0977116 8.31267 2.67671 13.3333 8 13.3333C8.98667 13.3333 9.87762 13.1592 10.6771 12.8781L9.29688 11.4969C8.89208 11.6473 8.45653 11.7333 8 11.7333C5.93813 11.7333 4.26667 10.0619 4.26667 8C4.26667 7.54347 4.35273 7.10793 4.50313 6.70313L2.64063 4.84063ZM5.87292 8.05938C5.90492 9.18844 6.81052 10.0951 7.93958 10.1271L5.87292 8.05938Z" fill="#6D747A"/>
</svg>
